[img]http://img442.imageshack.us/img442/2323/ghost20rider20blurayenl.png[/img]
 
http://www.imdb.com/title/tt0259324/

Source: Ghost.Rider.2007.Extended.Cut.720p.BluRay.DTS.x264-CtrlHD

Subs: Arabic, Bulgarian, Czech, Danish, Dutch, English, Finnish, French, Hebrew, Indonesian, Romanian, Slovenian, Swedish and Turkish.

Sample and Screens included.

General
Complete name                    : Ghost Rider 2007-720p MP4 AAC Extended Cut BRRip-CC.mp4
Format                           : MPEG-4
Format profile                   : Base Media
Codec ID                         : isom
File size                        : 1.88 GiB
Duration                         : 2h 3mn
Overall bit rate                 : 2 176 Kbps
Encoded date                     : UTC 2011-12-22 15:53:16
Tagged date                      : UTC 2011-12-22 15:53:16
Writing application              : Yamb 2.1.0.0

Video
ID                               : 1
Format                           : AVC
Format/Info                      : Advanced Video Codec
Format profile                   : High@L3.1
Format settings, CABAC           : Yes
Format settings, ReFrames        : 5 frames
Codec ID                         : avc1
Codec ID/Info                    : Advanced Video Coding
Duration                         : 2h 3mn
Bit rate mode                    : Variable
Bit rate                         : 1 724 Kbps
Nominal bit rate                 : 1 745 Kbps
Maximum bit rate                 : 14.5 Mbps
Width                            : 1 280 pixels
Height                           : 528 pixels
Display aspect ratio             : 2.40:1
Frame rate mode                  : Variable
Frame rate                       : 23.976 fps
Minimum frame rate               : 15.873 fps
Maximum frame rate               : 24.390 fps
Resolution                       : 8 bits
Colorimetry                      : 4:2:0
Scan type                        : Progressive
Bits/(Pixel*Frame)               : 0.106
Stream size                      : 1.49 GiB (79%)
Writing library                  : x264 core 112
Encoding settings                : cabac=1 / ref=5 / deblock=1:0:0 / analyse=0x3:0x113 / me=hex / subme=7 / psy=1 / psy_rd=1.00:0.00 / mixed_ref=1 / me_range=16 / chroma_me=1 / trellis=1 / 8x8dct=1 / cqm=0 / deadzone=21,11 / fast_pskip=1 / chroma_qp_offset=-2 / threads=3 / sliced_threads=0 / nr=0 / decimate=1 / interlaced=0 / constrained_intra=0 / bframes=5 / b_pyramid=2 / b_adapt=2 / b_bias=0 / direct=1 / weightb=1 / open_gop=0 / weightp=2 / keyint=240 / keyint_min=23 / scenecut=40 / intra_refresh=0 / rc_lookahead=50 / rc=abr / mbtree=1 / bitrate=1745 / ratetol=1.0 / qcomp=0.60 / qpmin=3 / qpmax=51 / qpstep=4 / ip_ratio=1.40 / aq=1:1.00
Encoded date                     : UTC 2011-12-23 08:07:38
Tagged date                      : UTC 2011-12-22 15:56:03
Color primaries                  : BT.709-5, BT.1361, IEC 61966-2-4, SMPTE RP177
Transfer characteristics         : BT.709-5, BT.1361
Matrix coefficients              : BT.709-5, BT.1361, IEC 61966-2-4 709, SMPTE RP177

Audio
ID                               : 2
Format                           : AAC
Format/Info                      : Advanced Audio Codec
Format version                   : Version 4
Format profile                   : LC
Format settings, SBR             : No
Codec ID                         : 40
Duration                         : 2h 3mn
Bit rate mode                    : Variable
Bit rate                         : 448 Kbps
Maximum bit rate                 : 707 Kbps
Channel(s)                       : 6 channels
Channel positions                : Front: L C R, Rear: L R, LFE
Sampling rate                    : 48.0 KHz
Stream size                      : 395 MiB (21%)
Language                         : English
Encoded date                     : UTC 2011-12-22 15:55:18
Tagged date                      : UTC 2011-12-22 15:56:03

Enjoy...

[img]http://img841.imageshack.us/img841/2636/ghostrider2007720pmp4aa.png[/img]

[img]http://img848.imageshack.us/img848/2636/ghostrider2007720pmp4aa.png[/img]

[img]http://img3.imageshack.us/img3/2636/ghostrider2007720pmp4aa.png[/img]

[img]http://img638.imageshack.us/img638/2636/ghostrider2007720pmp4aa.png[/img]

[img]http://img815.imageshack.us/img815/2636/ghostrider2007720pmp4aa.png[/img]